<svg xmlns="http://www.w3.org/2000/svg" width="36" height="36" viewBox="0 0 36 36"><defs><style>.a{fill:#384556;}.b{fill:#202029;stroke:#111;}.c{stroke:none;}.d{fill:none;}</style></defs><g transform="translate(4.926 6.596)"><path class="a" d="M61.617,69.051a.694.694,0,0,1-.35-.1A.644.644,0,0,1,61,68.434V58.145a.6.6,0,0,1,.412-.576l9.878-3.5a.6.6,0,0,1,.556.082.644.644,0,0,1,.268.514v10.29a.6.6,0,0,1-.412.576l-9.878,3.5C61.761,69.031,61.679,69.051,61.617,69.051Zm.617-10.475v8.972l8.643-3.066V55.51Z" transform="translate(-48.658 -46.419)"/><path class="a" d="M23.5,55.531a.731.731,0,0,1-.206-.041l-9.878-3.5A.619.619,0,0,1,13,51.415V41.125a.6.6,0,0,1,.412-.576l9.878-3.5A.612.612,0,0,1,23.7,38.2l-9.466,3.354v9.425L23.7,54.337a.6.6,0,0,1,.37.782A.619.619,0,0,1,23.5,55.531Z" transform="translate(-10.536 -32.899)"/><path class="a" d="M35.756,43.5,25.878,40m9.878,3.5L25.878,40m0,7L16,43.5" transform="translate(-12.918 -35.272)"/><g class="b" transform="translate(-4.926 -6.596)"><rect class="c" width="36" height="36"/><rect class="d" x="0.5" y="0.5" width="35" height="35"/></g><g transform="translate(0 0)"><path class="a" d="M4.107,25.25l9.878,3.5m12.924-7.8h0v-.021h0a.834.834,0,0,0-.1-.185.627.627,0,0,0-.268-.185h-.021l-9.878-3.5a.636.636,0,0,0-.741.268l-1.914,3.231-1.934-3.231a.618.618,0,0,0-.741-.268l-9.878,3.5a.656.656,0,0,0-.37.37.639.639,0,0,0,.041.514L3.49,25.415V35.54a.6.6,0,0,0,.412.576l9.878,3.5h0c.021,0,.041.021.062.021h.268c.021,0,.041-.021.082-.021h0l9.878-3.5a.619.619,0,0,0,.412-.576V25.415l2.387-3.972a.348.348,0,0,0,.041-.1v-.021a.261.261,0,0,0,.021-.123h0A.344.344,0,0,0,26.909,20.949Zm-24.345.514,8.684-3.087,1.832,3.046L4.4,24.509Zm2.161,4.651,8.643,3.066v8.972L4.725,35.087Zm11.195-1.79-2.2,3.684L5.959,25.25l8.026-2.84,3.457,1.214-1.194.412A.749.749,0,0,0,15.92,24.324Zm6.832-2.572-3.457,1.235-4.383-1.543L16.743,18.4l7.738,2.737Z" transform="translate(-1.026 -17.023)"/></g></g></svg>